<svg xmlns="http://www.w3.org/2000/svg" width="110" height="20" viewBox="0 0 110 20">
  <g id="Group_6172" data-name="Group 6172" transform="translate(-2545 4762)">
    <rect id="Rectangle_4866" data-name="Rectangle 4866" width="110" height="20" rx="3" transform="translate(2545 -4762)" fill="#0a7bbc"/>
    <path id="Rectangle_4867" data-name="Rectangle 4867" d="M3,0H21a0,0,0,0,1,0,0V20a0,0,0,0,1,0,0H3a3,3,0,0,1-3-3V3A3,3,0,0,1,3,0Z" transform="translate(2545 -4762)" fill="#505050"/>
    <g id="Group_6170" data-name="Group 6170" transform="translate(2537 -4762)">
      <text id="Open_in_Github" data-name="Open in Github" transform="translate(72.5 15)" fill="rgba(1,1,1,0.3)" font-size="11" font-family="DejaVuSans, DejaVu Sans"><tspan x="-41.61" y="0">Open in Github</tspan></text>
      <text id="Open_in_Github-2" data-name="Open in Github" transform="translate(72.5 14)" fill="#fff" font-size="11" font-family="DejaVuSans, DejaVu Sans"><tspan x="-41.61" y="0">Open in Github</tspan></text>
      <path id="Octicons-mark-github" d="M7.219,0A7.219,7.219,0,0,0,4.936,14.067c.361.063.5-.153.5-.343,0-.171-.009-.74-.009-1.344-1.814.334-2.283-.442-2.427-.848a2.625,2.625,0,0,0-.74-1.02c-.253-.135-.614-.469-.009-.478a1.445,1.445,0,0,1,1.11.74,1.543,1.543,0,0,0,2.1.6,1.518,1.518,0,0,1,.46-.965c-1.606-.18-3.284-.8-3.284-3.564a2.809,2.809,0,0,1,.74-1.94,2.594,2.594,0,0,1,.072-1.913s.6-.189,1.985.74a6.806,6.806,0,0,1,3.609,0c1.381-.938,1.985-.74,1.985-.74A2.594,2.594,0,0,1,11.1,4.9a2.793,2.793,0,0,1,.74,1.94c0,2.77-1.687,3.384-3.294,3.564a1.709,1.709,0,0,1,.487,1.335c0,.965-.009,1.742-.009,1.985,0,.189.135.415.5.343A7.222,7.222,0,0,0,7.219,0Z" transform="translate(11.563 2.598)" fill="#fff" fill-rule="evenodd"/>
    </g>
  </g>
</svg>
