<svg xmlns="http://www.w3.org/2000/svg" xmlns:xlink="http://www.w3.org/1999/xlink" width="111.4" height="20" viewBox="0 0 111.4 20">
  <defs>
    <clipPath id="clip-path">
      <path id="Path_25" data-name="Path 25" d="M2.9,0H108.5a2.925,2.925,0,0,1,2.9,3V17a2.925,2.925,0,0,1-2.9,3H2.9A2.925,2.925,0,0,1,0,17V3A2.925,2.925,0,0,1,2.9,0Z"/>
    </clipPath>
    <linearGradient id="linear-gradient" x1="-2.196" y1="19.388" x2="-2.196" y2="19.337" gradientUnits="objectBoundingBox">
      <stop offset="0" stop-color="#bbb" stop-opacity="0.102"/>
      <stop offset="1" stop-opacity="0.102"/>
    </linearGradient>
  </defs>
  <g id="open_in_github" transform="translate(-2536 4617)">
    <g id="open_in_kaggle" transform="translate(2536 -4617)">
      <g id="Group_6162" data-name="Group 6162">
        <g id="Group_6161" data-name="Group 6161" clip-path="url(#clip-path)">
          <path id="Path_22" data-name="Path 22" d="M0,0H18.1V20H0Z" fill="#585252"/>
          <path id="Path_23" data-name="Path 23" d="M18.1,0h93.3V20H18.1Z" fill="#007ec6"/>
          <path id="Path_24" data-name="Path 24" d="M0,0H111.3V20H0Z" fill="url(#linear-gradient)"/>
        </g>
      </g>
      <g id="Group_6165" data-name="Group 6165">
        <path id="Path_26" data-name="Path 26" fill="none"/>
        <path id="Path_27" data-name="Path 27" fill="none"/>
        <g id="Group_6163" data-name="Group 6163">
          <text id="Open_in_Github-2" data-name="Open in Github" transform="translate(22.713 15)" fill="#010101" font-size="11" font-family="Verdana"><tspan x="0" y="0">Open in Github</tspan></text>
        </g>
        <text id="Open_in_Github-3" data-name="Open in Github" transform="translate(22.713 14)" fill="#fff" font-size="11" font-family="Verdana"><tspan x="0" y="0">Open in Github</tspan></text>
      </g>
    </g>
    <path id="Octicons-mark-github" d="M6.5,0A6.5,6.5,0,0,0,4.444,12.667c.325.057.447-.138.447-.309,0-.154-.008-.666-.008-1.211-1.633.3-2.056-.4-2.186-.764a2.364,2.364,0,0,0-.666-.918c-.227-.122-.552-.422-.008-.431a1.3,1.3,0,0,1,1,.666,1.389,1.389,0,0,0,1.893.536,1.367,1.367,0,0,1,.414-.869c-1.446-.163-2.958-.723-2.958-3.209a2.53,2.53,0,0,1,.666-1.747A2.336,2.336,0,0,1,3.1,2.689s.544-.171,1.788.666a6.128,6.128,0,0,1,3.25,0c1.243-.845,1.788-.666,1.788-.666a2.336,2.336,0,0,1,.065,1.723,2.515,2.515,0,0,1,.666,1.747c0,2.494-1.519,3.047-2.966,3.209a1.539,1.539,0,0,1,.439,1.2c0,.869-.008,1.568-.008,1.787,0,.171.122.374.447.309A6.5,6.5,0,0,0,6.5,0Z" transform="translate(2539 -4613.34)" fill="#fff" fill-rule="evenodd"/>
  </g>
</svg>
