<svg id="open_in_kaggle" xmlns="http://www.w3.org/2000/svg" xmlns:xlink="http://www.w3.org/1999/xlink" width="111.4" height="20" viewBox="0 0 111.4 20">
  <defs>
    <clipPath id="clip-path">
      <path id="Path_25" data-name="Path 25" d="M2.9,0H108.5a2.925,2.925,0,0,1,2.9,3V17a2.925,2.925,0,0,1-2.9,3H2.9A2.925,2.925,0,0,1,0,17V3A2.925,2.925,0,0,1,2.9,0Z"/>
    </clipPath>
    <linearGradient id="linear-gradient" x1="-2.196" y1="19.388" x2="-2.196" y2="19.337" gradientUnits="objectBoundingBox">
      <stop offset="0" stop-color="#bbb" stop-opacity="0.102"/>
      <stop offset="1" stop-opacity="0.102"/>
    </linearGradient>
  </defs>
  <g id="Group_6162" data-name="Group 6162">
    <g id="Group_6161" data-name="Group 6161" clip-path="url(#clip-path)">
      <path id="Path_22" data-name="Path 22" d="M0,0H18.1V20H0Z" fill="#555"/>
      <path id="Path_23" data-name="Path 23" d="M18.1,0h93.3V20H18.1Z" fill="#007ec6"/>
      <path id="Path_24" data-name="Path 24" d="M0,0H111.3V20H0Z" fill="url(#linear-gradient)"/>
    </g>
  </g>
  <g id="Group_6165" data-name="Group 6165">
    <path id="Path_26" data-name="Path 26" fill="none"/>
    <path id="Path_27" data-name="Path 27" fill="none"/>
    <g id="Group_6163" data-name="Group 6163">
      <text id="Open_in_Kaggle-2" data-name="Open in Kaggle" transform="translate(22.713 15)" fill="#010101" font-size="11" font-family="Verdana"><tspan x="0" y="0">Open in Kaggle</tspan></text>
    </g>
    <text id="Open_in_Kaggle-3" data-name="Open in Kaggle" transform="translate(22.713 14)" fill="#fff" font-size="11" font-family="Verdana"><tspan x="0" y="0">Open in Kaggle</tspan></text>
    <g id="Group_6164" data-name="Group 6164">
      <path id="Path_28" data-name="Path 28" d="M13.5,15.9l-.1.1H11.8c-.1,0-.2,0-.2-.1L9,12.6l-.7.7v2.6c-.2,0-.2.1-.3.1H6.7a.215.215,0,0,1-.2-.2V4a.215.215,0,0,1,.2-.2H8a.215.215,0,0,1,.2.2v7.3l3.1-3.2a.31.31,0,0,1,.2-.1h1.6c.1,0,.1,0,.1.1v.2L10,11.4l3.5,4.3v.2Z" fill="#48bbeb"/>
    </g>
  </g>
</svg>
