<svg xmlns="http://www.w3.org/2000/svg" width="110" height="20" viewBox="0 0 110 20">
  <g id="Group_6173" data-name="Group 6173" transform="translate(-2545 4845)">
    <path id="Exclusion_1" data-name="Exclusion 1" d="M21,20H3a3,3,0,0,1-3-3V3A3,3,0,0,1,3,0H21V20ZM14.425,5.567a.589.589,0,0,1,.164.017A2.6,2.6,0,0,1,14.661,7.5,2.791,2.791,0,0,1,15.4,9.437c0,2.831-1.76,3.392-3.294,3.565a1.675,1.675,0,0,1,.488,1.336c0,.642,0,1.2-.007,1.574,0,.189,0,.33,0,.411a.342.342,0,0,0,.366.357.67.67,0,0,0,.13-.014,7.227,7.227,0,1,0-4.584,0,.709.709,0,0,0,.121.011.342.342,0,0,0,.375-.354c0-.059,0-.167,0-.307,0-.256-.006-.643-.006-1.038a4.537,4.537,0,0,1-.812.081,1.529,1.529,0,0,1-1.616-.929,2.627,2.627,0,0,0-.74-1.02c-.156-.084-.365-.252-.338-.364.018-.073.128-.111.329-.114h.014a1.482,1.482,0,0,1,1.1.74,1.437,1.437,0,0,0,1.28.784,2.051,2.051,0,0,0,.822-.19A1.531,1.531,0,0,1,9.482,13C7.953,12.83,6.2,12.268,6.2,9.437A2.794,2.794,0,0,1,6.937,7.5,2.621,2.621,0,0,1,7.01,5.584a.663.663,0,0,1,.156-.016,3.509,3.509,0,0,1,1.829.756,6.8,6.8,0,0,1,3.61,0A3.468,3.468,0,0,1,14.425,5.567Z" transform="translate(2545 -4845)" fill="#505050"/>
    <path id="Exclusion_2" data-name="Exclusion 2" d="M86,20H0V0H86a3,3,0,0,1,3,3V17A3,3,0,0,1,86,20ZM11.547,7.985v8.3h.994V13.1a2.066,2.066,0,0,0,.788.8,2.339,2.339,0,0,0,1.136.261,2.17,2.17,0,0,0,1.78-.87A3.608,3.608,0,0,0,16.929,11a3.609,3.609,0,0,0-.685-2.289,2.17,2.17,0,0,0-1.78-.87,2.339,2.339,0,0,0-1.136.261,2.067,2.067,0,0,0-.788.8V7.985ZM80.12,13.1l0,0a2.065,2.065,0,0,0,.786.794,2.339,2.339,0,0,0,1.136.261,2.17,2.17,0,0,0,1.78-.87A3.612,3.612,0,0,0,84.508,11a3.614,3.614,0,0,0-.685-2.289,2.17,2.17,0,0,0-1.78-.87,2.339,2.339,0,0,0-1.136.261,2.067,2.067,0,0,0-.787.8V5.643h-.994V14h.994v-.9ZM72.09,7.985v3.641a2.889,2.889,0,0,0,.537,1.885,1.94,1.94,0,0,0,1.574.645,2.232,2.232,0,0,0,1.1-.266,2.441,2.441,0,0,0,.835-.814V14h.988V7.985H76.14v3.41a2,2,0,0,1-.464,1.391,1.633,1.633,0,0,1-1.265.51,1.193,1.193,0,0,1-1-.427,2.073,2.073,0,0,1-.333-1.281v-3.6ZM52.91,5.836a3.91,3.91,0,0,0-2.94,1.1A4.243,4.243,0,0,0,48.909,10a4.237,4.237,0,0,0,1.061,3.059,3.91,3.91,0,0,0,2.94,1.1,5.6,5.6,0,0,0,1.616-.229,4.76,4.76,0,0,0,1.386-.674V9.811H53.066V10.7h1.773v2.154a2.8,2.8,0,0,1-.812.31,4.844,4.844,0,0,1-1.025.1,2.832,2.832,0,0,1-2.21-.822A3.57,3.57,0,0,1,50.053,10a3.577,3.577,0,0,1,.739-2.449A2.832,2.832,0,0,1,53,6.727a3.978,3.978,0,0,1,1.423.258,4.379,4.379,0,0,1,1.278.768V6.6a4.8,4.8,0,0,0-1.3-.57A5.653,5.653,0,0,0,52.91,5.836Zm-31.824,2a2.793,2.793,0,0,0-2.151.868,3.345,3.345,0,0,0-.8,2.344,3.071,3.071,0,0,0,.841,2.267,3.1,3.1,0,0,0,2.28.838,5.464,5.464,0,0,0,1.134-.119,5.936,5.936,0,0,0,1.09-.344v-.934a4.91,4.91,0,0,1-1.061.418,4.335,4.335,0,0,1-1.1.14,2.119,2.119,0,0,1-1.534-.535,2.293,2.293,0,0,1-.615-1.555h4.544v-.483a3.064,3.064,0,0,0-.706-2.124A2.469,2.469,0,0,0,21.086,7.839Zm-14.862-2a3.465,3.465,0,0,0-2.7,1.131A4.392,4.392,0,0,0,2.507,10,4.384,4.384,0,0,0,3.52,13.028a3.469,3.469,0,0,0,2.7,1.129,3.451,3.451,0,0,0,2.7-1.131A4.393,4.393,0,0,0,9.931,10a4.4,4.4,0,0,0-1.01-3.031A3.451,3.451,0,0,0,6.224,5.836ZM67.9,8.7a1.194,1.194,0,0,1,1,.425,2.056,2.056,0,0,1,.333,1.278V14h.989V10.369a2.908,2.908,0,0,0-.532-1.887,1.927,1.927,0,0,0-1.569-.643,2.244,2.244,0,0,0-1.109.269,2.419,2.419,0,0,0-.835.811V5.643h-.994V14h.994V10.6a2.005,2.005,0,0,1,.462-1.391A1.623,1.623,0,0,1,67.9,8.7Zm-7.734-.714v.768h.724v3.265a2.168,2.168,0,0,0,.436,1.555A2.26,2.26,0,0,0,62.906,14h1.015v-.827H62.906a1.164,1.164,0,0,1-.819-.21,1.483,1.483,0,0,1-.2-.946V8.753h2.036V7.985H61.885V6.277h-.994V7.985Zm-2.315,0V14h.988V7.985ZM41.54,8.7a1.2,1.2,0,0,1,1,.425,2.056,2.056,0,0,1,.333,1.278V14h.988V10.369a2.908,2.908,0,0,0-.532-1.887,1.926,1.926,0,0,0-1.568-.643,2.246,2.246,0,0,0-1.11.269,2.429,2.429,0,0,0-.835.811V7.985h-.994V14h.994V10.6a2,2,0,0,1,.463-1.391A1.623,1.623,0,0,1,41.54,8.7ZM35.8,7.985V14h.988V7.985ZM28.015,8.7a1.2,1.2,0,0,1,1,.425,2.056,2.056,0,0,1,.333,1.278V14h.988V10.369A2.908,2.908,0,0,0,29.8,8.482a1.926,1.926,0,0,0-1.568-.643,2.246,2.246,0,0,0-1.11.269,2.429,2.429,0,0,0-.835.811V7.985H25.3V14h.994V10.6a2.005,2.005,0,0,1,.462-1.391A1.627,1.627,0,0,1,28.015,8.7ZM57.852,5.643V6.894h.988V5.643Zm-22.049,0V6.894h.988V5.643Zm46,7.686a1.443,1.443,0,0,1-1.232-.621A2.877,2.877,0,0,1,80.12,11a2.879,2.879,0,0,1,.449-1.711,1.534,1.534,0,0,1,2.465,0A2.885,2.885,0,0,1,83.482,11a2.883,2.883,0,0,1-.448,1.71A1.444,1.444,0,0,1,81.8,13.329Zm-67.579,0a1.443,1.443,0,0,1-1.232-.621A2.882,2.882,0,0,1,12.541,11a2.884,2.884,0,0,1,.449-1.711,1.534,1.534,0,0,1,2.465,0A2.885,2.885,0,0,1,15.9,11a2.883,2.883,0,0,1-.448,1.71A1.444,1.444,0,0,1,14.222,13.329Zm-8-.054a2.277,2.277,0,0,1-1.877-.881A3.782,3.782,0,0,1,3.652,10a3.79,3.79,0,0,1,.695-2.4,2.277,2.277,0,0,1,1.877-.881A2.26,2.26,0,0,1,8.1,7.6a3.81,3.81,0,0,1,.69,2.4,3.8,3.8,0,0,1-.69,2.4A2.26,2.26,0,0,1,6.224,13.275ZM19.2,10.461h0a1.975,1.975,0,0,1,.571-1.315A1.859,1.859,0,0,1,21.1,8.677a1.522,1.522,0,0,1,1.174.483,1.89,1.89,0,0,1,.455,1.3Z" transform="translate(2566 -4845)" fill="#0a7bbc"/>
  </g>
</svg>
