<svg xmlns="http://www.w3.org/2000/svg" width="117" height="20" viewBox="0 0 117 20">
  <g id="Group_6171" data-name="Group 6171" transform="translate(-2536 4762)">
    <rect id="Rectangle_4866" data-name="Rectangle 4866" width="117" height="20" rx="3" transform="translate(2536 -4762)" fill="#0a7bbc"/>
    <path id="Rectangle_4867" data-name="Rectangle 4867" d="M3,0H30a0,0,0,0,1,0,0V20a0,0,0,0,1,0,0H3a3,3,0,0,1-3-3V3A3,3,0,0,1,3,0Z" transform="translate(2536 -4762)" fill="#505050"/>
    <g id="Group_6170" data-name="Group 6170" transform="translate(2536 -4762)">
      <g id="Group_6169" data-name="Group 6169" transform="translate(4 -2.106)">
        <path id="Path_32" data-name="Path 32" d="M1.911,16.457a6.306,6.306,0,0,1,0-9.044c.91.622,1.493,1.606,2.429,2.2a3.655,3.655,0,0,0,0,4.642C3.4,14.853,2.82,15.834,1.911,16.457Z" transform="translate(0 -0.077)" fill="#e8710a"/>
        <path id="Path_33" data-name="Path 33" d="M12.183,16.712a6.227,6.227,0,0,1-2.047-5.818,6.333,6.333,0,0,1,4.78-5.488,6.277,6.277,0,0,1,6.648,1.758,17.372,17.372,0,0,0-2.352,2.364,3.479,3.479,0,0,0-3.411-.8c-2.323.741-2.944,3.132-1.444,5.455-.233.266-.476.523-.7.8C13.186,15.576,12.428,15.925,12.183,16.712Z" transform="translate(-0.337 0)" fill="#f9ab00"/>
        <path id="Path_34" data-name="Path 34" d="M19.285,9.6a17.372,17.372,0,0,1,2.352-2.364,6.693,6.693,0,0,1-9.381,9.548c.245-.787,1-1.136,1.477-1.728.22-.275.464-.534.7-.8a3.425,3.425,0,0,0,3.479.8C20.226,14.306,20.853,11.77,19.285,9.6Z" transform="translate(-0.411 -0.071)" fill="#e8710a"/>
        <path id="Path_35" data-name="Path 35" d="M4.406,9.539c-.936-.6-1.518-1.579-2.429-2.2a6.631,6.631,0,0,1,8.192-1.31c.536.309.695.586.275,1.09a5.648,5.648,0,0,0-.378.61,4.6,4.6,0,0,1-.9,1.325c-.469.339-.865-.33-1.35-.427A3.749,3.749,0,0,0,4.406,9.539Z" transform="translate(-0.066 -0.002)" fill="#f9ab00"/>
        <path id="Path_36" data-name="Path 36" d="M1.977,16.694c.909-.622,1.493-1.6,2.425-2.2a3.459,3.459,0,0,0,4.3.482c.321-.188.486-.085.65.184.373.614.728,1.242,1.141,1.827.329.464.215.691-.245.972A6.642,6.642,0,0,1,1.977,16.694Z" transform="translate(-0.066 -0.314)" fill="#f9ab00"/>
      </g>
      <text id="Open_in_Colab" data-name="Open in Colab" transform="translate(72.5 15)" fill="rgba(1,1,1,0.3)" font-size="11" font-family="DejaVuSans, DejaVu Sans"><tspan x="-38.795" y="0">Open in Colab</tspan></text>
      <text id="Open_in_Colab-2" data-name="Open in Colab" transform="translate(72.5 14)" fill="#fff" font-size="11" font-family="DejaVuSans, DejaVu Sans"><tspan x="-38.795" y="0">Open in Colab</tspan></text>
    </g>
  </g>
</svg>
